<svg width="233" height="19" viewBox="0 0 233 19" fill="none" xmlns="http://www.w3.org/2000/svg">
<path d="M0.310406 9.36C0.310406 8.32 0.494406 7.296 0.862406 6.288C1.24641 5.28 1.79841 4.368 2.51841 3.552C3.23841 2.736 4.11841 2.088 5.15841 1.608C6.19841 1.112 7.38241 0.863999 8.71041 0.863999C10.2624 0.863999 11.6144 1.208 12.7664 1.896C13.9184 2.584 14.7744 3.48 15.3344 4.584L12.7904 6.336C12.5024 5.696 12.1264 5.192 11.6624 4.824C11.1984 4.456 10.6944 4.192 10.1504 4.032C9.62241 3.872 9.11041 3.792 8.61441 3.792C7.78241 3.792 7.05441 3.96 6.43041 4.296C5.82241 4.632 5.31041 5.072 4.89441 5.616C4.47841 6.16 4.16641 6.768 3.95841 7.44C3.76641 8.112 3.67041 8.784 3.67041 9.456C3.67041 10.464 3.87841 11.408 4.29441 12.288C4.71041 13.152 5.29441 13.856 6.04641 14.4C6.79841 14.944 7.67041 15.216 8.66241 15.216C9.17441 15.216 9.70241 15.128 10.2464 14.952C10.8064 14.776 11.3184 14.496 11.7824 14.112C12.2464 13.728 12.6064 13.232 12.8624 12.624L15.5744 14.184C15.2224 15.032 14.6704 15.752 13.9184 16.344C13.1664 16.92 12.3184 17.368 11.3744 17.688C10.4304 17.992 9.49441 18.144 8.56641 18.144C7.35041 18.144 6.23841 17.896 5.23041 17.4C4.23841 16.888 3.37441 16.216 2.63841 15.384C1.90241 14.536 1.32641 13.592 0.910406 12.552C0.510406 11.496 0.310406 10.432 0.310406 9.36ZM17.7955 18V0.959999H25.3315C26.1155 0.959999 26.8355 1.12 27.4915 1.44C28.1635 1.76 28.7395 2.192 29.2195 2.736C29.7155 3.28 30.0915 3.888 30.3475 4.56C30.6195 5.232 30.7555 5.92 30.7555 6.624C30.7555 7.712 30.4755 8.712 29.9155 9.624C29.3715 10.536 28.6275 11.192 27.6835 11.592L31.5715 18H27.9235L24.4195 12.288H21.1075V18H17.7955ZM21.1075 9.384H25.2595C25.8835 9.384 26.3955 9.12 26.7955 8.592C27.2115 8.048 27.4195 7.392 27.4195 6.624C27.4195 6.096 27.3075 5.624 27.0835 5.208C26.8595 4.792 26.5715 4.464 26.2195 4.224C25.8835 3.984 25.5155 3.864 25.1155 3.864H21.1075V9.384ZM45.5885 15.096V18H33.7565V0.959999H45.3725V3.864H37.0685V7.968H44.2445V10.656H37.0685V15.096H45.5885ZM52.8025 0.959999H56.1625L62.4265 18H59.0185L57.4345 13.752H51.4825L49.9225 18H46.5145L52.8025 0.959999ZM56.8345 11.424L54.4825 4.392L52.0345 11.424H56.8345ZM75.4458 3.864H69.9978V18H66.7098V3.864H61.2618V0.959999H75.4458V3.864ZM77.5612 18V0.959999H80.8732V18H77.5612ZM86.1803 0.959999L90.7883 14.064L95.3483 0.959999H98.8283L92.3723 18H89.1803L82.7003 0.959999H86.1803ZM112.479 15.096V18H100.647V0.959999H112.263V3.864H103.959V7.968H111.135V10.656H103.959V15.096H112.479ZM115.061 18V0.959999H118.373V15.096H127.061V18H115.061ZM128.536 0.959999L132.736 8.976L137.008 0.959999H140.584L134.392 12.048V18H131.104V12L124.936 0.959999H128.536ZM147.335 18V0.959999H153.527C155.383 0.959999 156.935 1.344 158.183 2.112C159.431 2.864 160.367 3.888 160.991 5.184C161.615 6.464 161.927 7.888 161.927 9.456C161.927 11.184 161.583 12.688 160.895 13.968C160.207 15.248 159.231 16.24 157.967 16.944C156.703 17.648 155.223 18 153.527 18H147.335ZM158.591 9.456C158.591 8.352 158.391 7.384 157.991 6.552C157.591 5.704 157.015 5.048 156.263 4.584C155.511 4.104 154.599 3.864 153.527 3.864H150.647V15.096H153.527C154.615 15.096 155.535 14.856 156.287 14.376C157.039 13.88 157.607 13.208 157.991 12.36C158.391 11.496 158.591 10.528 158.591 9.456ZM176.346 15.096V18H164.514V0.959999H176.13V3.864H167.826V7.968H175.002V10.656H167.826V15.096H176.346ZM189.08 5.424C188.936 5.264 188.632 5.056 188.168 4.8C187.704 4.528 187.144 4.288 186.488 4.08C185.848 3.856 185.184 3.744 184.496 3.744C182.688 3.744 181.784 4.384 181.784 5.664C181.784 6.128 181.928 6.496 182.216 6.768C182.504 7.04 182.936 7.272 183.512 7.464C184.088 7.656 184.808 7.864 185.672 8.088C186.792 8.376 187.76 8.712 188.576 9.096C189.408 9.48 190.04 9.992 190.472 10.632C190.92 11.256 191.144 12.088 191.144 13.128C191.144 14.344 190.848 15.328 190.256 16.08C189.68 16.816 188.912 17.352 187.952 17.688C186.992 18.024 185.952 18.192 184.832 18.192C183.552 18.192 182.28 18 181.016 17.616C179.768 17.216 178.656 16.672 177.68 15.984L179.144 13.128C179.288 13.272 179.544 13.464 179.912 13.704C180.28 13.928 180.728 14.16 181.256 14.4C181.784 14.624 182.36 14.816 182.984 14.976C183.608 15.136 184.24 15.216 184.88 15.216C186.704 15.216 187.616 14.632 187.616 13.464C187.616 12.968 187.432 12.568 187.064 12.264C186.696 11.96 186.176 11.704 185.504 11.496C184.848 11.288 184.08 11.056 183.2 10.8C182.112 10.496 181.208 10.16 180.488 9.792C179.784 9.408 179.256 8.936 178.904 8.376C178.552 7.8 178.376 7.072 178.376 6.192C178.376 5.024 178.648 4.048 179.192 3.264C179.752 2.464 180.504 1.864 181.448 1.464C182.392 1.048 183.44 0.839999 184.592 0.839999C185.776 0.839999 186.88 1.032 187.904 1.416C188.928 1.8 189.808 2.24 190.544 2.736L189.08 5.424ZM193.647 18V0.959999H196.959V18H193.647ZM207.594 18.12C206.474 18.12 205.426 17.896 204.45 17.448C203.474 17 202.61 16.384 201.858 15.6C201.122 14.8 200.546 13.872 200.13 12.816C199.714 11.76 199.506 10.616 199.506 9.384C199.506 8.216 199.714 7.12 200.13 6.096C200.546 5.056 201.13 4.144 201.882 3.36C202.634 2.576 203.514 1.96 204.522 1.512C205.53 1.064 206.626 0.839999 207.81 0.839999C209.394 0.839999 210.762 1.184 211.914 1.872C213.066 2.544 213.93 3.44 214.506 4.56L212.034 6.384C211.602 5.552 210.994 4.912 210.21 4.464C209.442 4 208.602 3.768 207.69 3.768C206.73 3.768 205.882 4.032 205.146 4.56C204.426 5.088 203.858 5.784 203.442 6.648C203.042 7.512 202.842 8.456 202.842 9.48C202.842 10.552 203.058 11.52 203.49 12.384C203.922 13.248 204.514 13.936 205.266 14.448C206.034 14.944 206.906 15.192 207.882 15.192C209.53 15.192 211.018 14.416 212.346 12.864V11.664H208.914V9.24H215.082V18H212.346V16.08C210.97 17.44 209.386 18.12 207.594 18.12ZM221.217 7.056V18H217.905V0.959999H220.545L229.353 12.192V0.983999H232.665V18H229.905L221.217 7.056Z" fill="white"/>
</svg>
