<svg width="66" height="46" viewBox="0 0 66 46" fill="none" xmlns="http://www.w3.org/2000/svg">
<path d="M58.5733 -3.05176e-05C60.543 -3.05176e-05 62.432 0.77858 63.8248 2.16451C65.2177 3.55045 66.0001 5.43018 66.0001 7.39019V38.6097C66.0001 40.5698 65.2177 42.4495 63.8248 43.8354C62.432 45.2214 60.543 46 58.5733 46H7.42698C6.45167 46 5.48591 45.8088 4.58484 45.4374C3.68378 45.066 2.86505 44.5217 2.1754 43.8354C1.48575 43.1492 0.938692 42.3345 0.565458 41.4379C0.192223 40.5412 0.00012207 39.5802 0.00012207 38.6097V7.39019C0.00012207 5.43018 0.782592 3.55045 2.1754 2.16451C3.5682 0.77858 5.45725 -3.05176e-05 7.42698 -3.05176e-05H58.5733ZM58.5733 4.92678H7.42698C6.7704 4.92678 6.14072 5.18632 5.67645 5.6483C5.21218 6.11027 4.95136 6.73685 4.95136 7.39019V38.6097C4.95136 39.9696 6.06044 41.0732 7.42698 41.0732H58.5733C59.2298 41.0732 59.8595 40.8136 60.3238 40.3516C60.7881 39.8897 61.0489 39.2631 61.0489 38.6097V7.39019C61.0489 6.73685 60.7881 6.11027 60.3238 5.6483C59.8595 5.18632 59.2298 4.92678 58.5733 4.92678ZM15.679 31.2031H50.3377C50.9649 31.2033 51.5687 31.4404 52.027 31.8665C52.4854 32.2926 52.7641 32.8759 52.8068 33.4986C52.8496 34.1213 52.6532 34.7369 52.2574 35.2211C51.8615 35.7053 51.2958 36.0219 50.6744 36.1069L50.3377 36.1299H15.679C15.0518 36.1297 14.448 35.8926 13.9897 35.4665C13.5314 35.0404 13.2527 34.4571 13.2099 33.8344C13.1672 33.2117 13.3636 32.5961 13.7594 32.1119C14.1552 31.6278 14.721 31.3112 15.3424 31.2261L15.679 31.2031H50.3377H15.679ZM47.8621 19.7072C48.7375 19.7072 49.5771 20.0533 50.1961 20.6692C50.8152 21.2852 51.1629 22.1206 51.1629 22.9918C51.1629 23.8629 50.8152 24.6983 50.1961 25.3143C49.5771 25.9303 48.7375 26.2763 47.8621 26.2763C46.9867 26.2763 46.1471 25.9303 45.528 25.3143C44.909 24.6983 44.5613 23.8629 44.5613 22.9918C44.5613 22.1206 44.909 21.2852 45.528 20.6692C46.1471 20.0533 46.9867 19.7072 47.8621 19.7072ZM28.0736 19.7072C28.9491 19.7072 29.7887 20.0533 30.4077 20.6692C31.0267 21.2852 31.3745 22.1206 31.3745 22.9918C31.3745 23.8629 31.0267 24.6983 30.4077 25.3143C29.7887 25.9303 28.9491 26.2763 28.0736 26.2763C27.1982 26.2763 26.3586 25.9303 25.7396 25.3143C25.1206 24.6983 24.7728 23.8629 24.7728 22.9918C24.7728 22.1206 25.1206 21.2852 25.7396 20.6692C26.3586 20.0533 27.1982 19.7072 28.0736 19.7072ZM18.1712 19.7072C19.0466 19.7072 19.8862 20.0533 20.5052 20.6692C21.1242 21.2852 21.472 22.1206 21.472 22.9918C21.472 23.8629 21.1242 24.6983 20.5052 25.3143C19.8862 25.9303 19.0466 26.2763 18.1712 26.2763C17.2957 26.2763 16.4562 25.9303 15.8371 25.3143C15.2181 24.6983 14.8703 23.8629 14.8703 22.9918C14.8703 22.1206 15.2181 21.2852 15.8371 20.6692C16.4562 20.0533 17.2957 19.7072 18.1712 19.7072ZM37.9761 19.7072C38.8515 19.7072 39.6911 20.0533 40.3102 20.6692C40.9292 21.2852 41.2769 22.1206 41.2769 22.9918C41.2769 23.8629 40.9292 24.6983 40.3102 25.3143C39.6911 25.9303 38.8515 26.2763 37.9761 26.2763C37.1007 26.2763 36.2611 25.9303 35.6421 25.3143C35.0231 24.6983 34.6753 23.8629 34.6753 22.9918C34.6753 22.1206 35.0231 21.2852 35.6421 20.6692C36.2611 20.0533 37.1007 19.7072 37.9761 19.7072ZM13.2034 9.85359C14.0789 9.85359 14.9184 10.1996 15.5375 10.8156C16.1565 11.4316 16.5042 12.267 16.5042 13.1381C16.5042 14.0092 16.1565 14.8447 15.5375 15.4607C14.9184 16.0766 14.0789 16.4227 13.2034 16.4227C12.328 16.4227 11.4884 16.0766 10.8694 15.4607C10.2504 14.8447 9.9026 14.0092 9.9026 13.1381C9.9026 12.267 10.2504 11.4316 10.8694 10.8156C11.4884 10.1996 12.328 9.85359 13.2034 9.85359ZM23.0894 9.85359C23.9648 9.85359 24.8044 10.1996 25.4234 10.8156C26.0425 11.4316 26.3902 12.267 26.3902 13.1381C26.3902 14.0092 26.0425 14.8447 25.4234 15.4607C24.8044 16.0766 23.9648 16.4227 23.0894 16.4227C22.214 16.4227 21.3744 16.0766 20.7554 15.4607C20.1363 14.8447 19.7886 14.0092 19.7886 13.1381C19.7886 12.267 20.1363 11.4316 20.7554 10.8156C21.3744 10.1996 22.214 9.85359 23.0894 9.85359ZM32.9919 9.85359C33.8673 9.85359 34.7069 10.1996 35.3259 10.8156C35.9449 11.4316 36.2927 12.267 36.2927 13.1381C36.2927 14.0092 35.9449 14.8447 35.3259 15.4607C34.7069 16.0766 33.8673 16.4227 32.9919 16.4227C32.1164 16.4227 31.2769 16.0766 30.6578 15.4607C30.0388 14.8447 29.691 14.0092 29.691 13.1381C29.691 12.267 30.0388 11.4316 30.6578 10.8156C31.2769 10.1996 32.1164 9.85359 32.9919 9.85359ZM42.8943 9.85359C43.7698 9.85359 44.6094 10.1996 45.2284 10.8156C45.8474 11.4316 46.1952 12.267 46.1952 13.1381C46.1952 14.0092 45.8474 14.8447 45.2284 15.4607C44.6094 16.0766 43.7698 16.4227 42.8943 16.4227C42.0189 16.4227 41.1793 16.0766 40.5603 15.4607C39.9413 14.8447 39.5935 14.0092 39.5935 13.1381C39.5935 12.267 39.9413 11.4316 40.5603 10.8156C41.1793 10.1996 42.0189 9.85359 42.8943 9.85359ZM52.7968 9.85359C53.6723 9.85359 54.5118 10.1996 55.1309 10.8156C55.7499 11.4316 56.0976 12.267 56.0976 13.1381C56.0976 14.0092 55.7499 14.8447 55.1309 15.4607C54.5118 16.0766 53.6723 16.4227 52.7968 16.4227C51.9214 16.4227 51.0818 16.0766 50.4628 15.4607C49.8438 14.8447 49.496 14.0092 49.496 13.1381C49.496 12.267 49.8438 11.4316 50.4628 10.8156C51.0818 10.1996 51.9214 9.85359 52.7968 9.85359Z" fill="#EC7979"/>
</svg>
