<svg width="82" height="82" viewBox="0 0 82 82" fill="none" xmlns="http://www.w3.org/2000/svg">
<g filter="url(#filter0_d_2341_3233)">
<path d="M32.5232 55.1362H49.4733H32.5232ZM41 4.35483V7.98207V4.35483ZM64.0838 13.9162L61.5193 16.4807L64.0838 13.9162ZM73.6452 37H70.0179H73.6452ZM11.9821 37H8.35486H11.9821ZM20.4807 16.4807L17.9163 13.9162L20.4807 16.4807ZM28.1741 49.8259C25.6382 47.2893 23.9114 44.0578 23.212 40.5398C22.5126 37.0219 22.872 33.3755 24.2448 30.0618C25.6176 26.7482 27.9422 23.916 30.9246 21.9233C33.907 19.9307 37.4132 18.8672 41 18.8672C44.5868 18.8672 48.0931 19.9307 51.0755 21.9233C54.0578 23.916 56.3824 26.7482 57.7552 30.0618C59.1281 33.3755 59.4875 37.0219 58.7881 40.5398C58.0887 44.0578 56.3619 47.2893 53.8259 49.8259L51.8382 51.81C50.7018 52.9466 49.8005 54.2959 49.1856 55.7809C48.5707 57.2658 48.2543 58.8574 48.2545 60.4646V62.3907C48.2545 64.3147 47.4902 66.1599 46.1297 67.5204C44.7692 68.8808 42.924 69.6452 41 69.6452C39.076 69.6452 37.2308 68.8808 35.8703 67.5204C34.5099 66.1599 33.7455 64.3147 33.7455 62.3907V60.4646C33.7455 57.2182 32.4542 54.1024 30.1618 51.81L28.1741 49.8259Z" stroke="#EC7979" stroke-width="6.83333" stroke-linecap="round" stroke-linejoin="round" shape-rendering="crispEdges"/>
</g>
<defs>
<filter id="filter0_d_2341_3233" x="0.938232" y="0.938171" width="80.1237" height="80.1237" filterUnits="userSpaceOnUse" color-interpolation-filters="sRGB">
<feFlood flood-opacity="0" result="BackgroundImageFix"/>
<feColorMatrix in="SourceAlpha" type="matrix" values="0 0 0 0 0 0 0 0 0 0 0 0 0 0 0 0 0 0 127 0" result="hardAlpha"/>
<feOffset dy="4"/>
<feGaussianBlur stdDeviation="2"/>
<feComposite in2="hardAlpha" operator="out"/>
<feColorMatrix type="matrix" values="0 0 0 0 0 0 0 0 0 0 0 0 0 0 0 0 0 0 0.25 0"/>
<feBlend mode="normal" in2="BackgroundImageFix" result="effect1_dropShadow_2341_3233"/>
<feBlend mode="normal" in="SourceGraphic" in2="effect1_dropShadow_2341_3233" result="shape"/>
</filter>
</defs>
</svg>
